ply
format ascii 1.0
element vertex 373
property float x
property float y
property float z
property float nx
property float ny
property float nz
property uchar red
property uchar green
property uchar blue
element face 650
property list uchar int vertex_index
end_header
-0.076190 -0.072589 0.314221 -0.983991 -0.074359 -0.161965 255 255 255
-0.076603 -0.067589 0.314221 -0.860861 0.058171 -0.505504 255 255 255
-0.076747 -0.067589 0.313629 -0.961026 -0.025609 0.275269 255 255 255
-0.076747 -0.072589 0.311715 -0.965989 -0.092438 0.241497 255 255 255
-0.076747 -0.072589 0.314778 -0.663209 -0.056398 -0.746307 255 255 255
-0.076747 -0.067589 0.314365 -0.548050 0.063045 -0.834066 255 255 255
-0.076090 -0.062589 0.314221 -0.879913 0.024074 -0.474525 255 255 255
-0.076747 -0.062589 0.311197 -0.969117 0.077534 0.234097 255 255 255
-0.076747 -0.062589 0.314878 -0.528696 0.006139 -0.848789 255 255 255
-0.076070 -0.057589 0.314221 -0.837491 0.041564 -0.544868 255 255 255
-0.076747 -0.057589 0.311093 -0.971074 -0.040167 0.235378 255 255 255
-0.076747 -0.057589 0.314898 -0.447013 -0.029984 -0.894025 255 255 255
-0.071747 -0.052885 0.314221 0.283450 0.940002 0.189876 255 255 255
-0.071747 -0.052589 0.312962 0.068199 0.912586 0.403156 255 255 255
-0.076747 -0.052589 0.312904 -0.011447 -0.230976 0.972892 255 255 255
-0.076747 -0.052589 0.314530 0.555223 0.012765 -0.831603 255 255 255
-0.071747 -0.053468 0.319221 0.115117 0.966971 -0.227409 255 255 255
-0.072625 -0.052589 0.319221 0.808024 -0.331961 -0.486723 255 255 255
-0.071747 -0.052589 0.320100 0.155930 -0.153843 -0.975714 255 255 255
-0.076747 -0.047589 0.313468 0.136653 -0.916900 0.374993 255 255 255
-0.071747 -0.047589 0.311393 0.306644 -0.077135 0.948694 255 255 255
-0.071747 -0.047589 0.314629 -0.330233 -0.392130 -0.858592 255 255 255
-0.076747 -0.048509 0.319221 0.514235 0.430491 -0.741782 255 255 255
-0.075827 -0.047589 0.319221 -0.745936 -0.499445 -0.440607 255 255 255
-0.071747 -0.051711 0.319221 0.268439 -0.849396 -0.454386 255 255 255
-0.076747 -0.047589 0.320141 -0.430347 -0.272043 -0.860694 255 255 255
-0.071797 -0.042589 0.314221 0.983009 0.114777 0.143249 255 255 255
-0.076747 -0.047408 0.314221 0.080292 -0.979565 0.184404 255 255 255
-0.071747 -0.042589 0.314018 0.625076 -0.704621 0.335840 255 255 255
-0.076747 -0.046670 0.319221 -0.611279 -0.738189 -0.285333 255 255 255
-0.071747 -0.042922 0.319221 0.652916 0.050225 -0.755763 255 255 255
-0.072079 -0.042589 0.319221 0.757883 -0.563838 -0.328177 255 255 255
-0.071747 -0.042589 0.319554 0.000000 -0.397749 -0.917494 255 255 255
-0.071747 -0.042539 0.314221 0.540007 -0.834206 0.111775 255 255 255
-0.071747 -0.042257 0.319221 -0.293497 -0.919914 -0.260036 255 255 255
-0.067099 -0.067589 0.314221 0.772142 -0.430386 -0.467509 255 255 255
-0.066913 -0.072589 0.314221 0.989620 0.038333 0.138501 255 255 255
-0.066747 -0.072589 0.313533 0.945252 0.053376 0.321947 255 255 255
-0.066747 -0.067589 0.312704 0.721775 -0.013894 0.691988 255 255 255
-0.066747 -0.067589 0.314574 0.408148 -0.462050 -0.787353 255 255 255
-0.066747 -0.072202 0.319221 -0.169094 -0.907602 -0.384272 255 255 255
-0.067134 -0.072589 0.319221 0.727248 -0.670938 -0.144751 255 255 255
-0.066747 -0.072589 0.319609 0.000000 -0.678080 -0.734988 255 255 255
-0.066747 -0.063717 0.314221 0.575850 0.815017 0.064368 255 255 255
-0.066747 -0.062589 0.314833 0.593074 0.738993 0.319612 255 255 255
-0.067431 -0.062589 0.319221 0.911419 0.013511 -0.411258 255 255 255
-0.066747 -0.063274 0.319221 0.481565 0.230850 -0.845460 255 255 255
-0.066747 -0.062589 0.319906 0.154587 0.101507 -0.982751 255 255 255
-0.066964 -0.057589 0.314221 0.985749 0.072067 0.152002 255 255 255
-0.066747 -0.060955 0.314221 0.305047 0.312838 0.899488 255 255 255
-0.066747 -0.057589 0.313129 0.948562 0.121087 0.292520 255 255 255
-0.067605 -0.057589 0.319221 0.857657 0.110907 -0.502119 255 255 255
-0.066747 -0.057589 0.320079 -0.091656 -0.008691 -0.995753 255 255 255
-0.066747 -0.052589 0.309867 -0.419596 0.175796 0.890525 255 255 255
-0.066747 -0.052589 0.319970 -0.015414 -0.493914 -0.869374 255 255 255
-0.066747 -0.047589 0.310680 -0.065319 0.098323 0.993009 255 255 255
-0.066747 -0.047589 0.314685 0.180507 -0.485097 -0.855628 255 255 255
-0.066747 -0.051840 0.319221 -0.025228 -0.841279 -0.540012 255 255 255
-0.066747 -0.042589 0.309736 -0.888849 -0.404948 0.214394 255 255 255
-0.071414 -0.042589 0.319221 -0.533363 -0.609922 -0.586105 255 255 255
-0.066747 -0.042589 0.314855 -0.324812 -0.291886 -0.899611 255 255 255
-0.066747 -0.041955 0.314221 -0.216987 -0.905065 -0.365751 255 255 255
-0.061747 -0.067761 0.314221 -0.587475 0.739296 0.329112 255 255 255
-0.062246 -0.067589 0.314221 0.731247 0.304005 0.610622 255 255 255
-0.061747 -0.072589 0.309492 -0.493647 -0.608549 0.621273 255 255 255
-0.061747 -0.067589 0.314434 -0.464655 0.781861 0.415678 255 255 255
-0.066360 -0.072589 0.319221 -0.718661 -0.601955 -0.348104 255 255 255
-0.061747 -0.072589 0.315178 -0.325887 0.022485 -0.945141 255 255 255
-0.061747 -0.068386 0.319221 -0.576313 0.127203 -0.807269 255 255 255
-0.062543 -0.067589 0.319221 0.839372 0.047222 -0.541502 255 255 255
-0.061747 -0.067589 0.320018 0.000000 0.014432 -0.999896 255 255 255
-0.063342 -0.065942 0.314753 -0.365580 -0.521187 0.771178 255 255 255
-0.061747 -0.062589 0.317073 -0.831775 -0.394165 0.390877 255 255 255
-0.061747 -0.062589 0.319706 -0.159062 -0.510677 -0.844931 255 255 255
-0.061747 -0.059491 0.314221 -0.895476 -0.259533 -0.361614 255 255 255
-0.061747 -0.057589 0.310733 -0.951079 0.030303 0.307459 255 255 255
-0.061747 -0.062104 0.319221 -0.395111 -0.871766 -0.289676 255 255 255
-0.065889 -0.057589 0.319221 -0.573116 0.157342 -0.804227 255 255 255
-0.061747 -0.057589 0.314624 -0.476205 -0.423106 -0.770851 255 255 255
-0.061747 -0.052846 0.314221 -0.651285 0.573046 0.497440 255 255 255
-0.061962 -0.052589 0.314221 -0.387900 0.640226 0.663056 255 255 255
-0.061747 -0.053224 0.319221 -0.077409 0.223368 -0.971656 255 255 255
-0.061747 -0.052589 0.314379 -0.442790 0.867119 0.228125 255 255 255
-0.061747 -0.052589 0.319856 -0.301197 0.087461 -0.949542 255 255 255
-0.061747 -0.051897 0.314221 0.106018 0.232802 0.966728 255 255 255
-0.061747 -0.047589 0.312858 -0.018376 -0.959229 0.282031 255 255 255
-0.062650 -0.047589 0.319221 0.728186 -0.601457 -0.328627 255 255 255
-0.061747 -0.047589 0.320125 0.058115 -0.256347 -0.964836 255 255 255
-0.061747 -0.047446 0.314221 -0.023770 -0.989158 0.144916 255 255 255
-0.066113 -0.042589 0.314221 -0.756522 -0.519809 -0.396828 255 255 255
-0.061747 -0.046686 0.319221 -0.305340 -0.933078 -0.190089 255 255 255
-0.060790 -0.072589 0.314221 -0.890673 -0.142664 -0.431681 255 255 255
-0.060950 -0.067589 0.319221 -0.982290 -0.134336 -0.130613 255 255 255
-0.061262 -0.062589 0.319221 -0.679658 -0.469256 -0.563795 255 255 255
-0.061344 -0.057589 0.314221 -0.864877 -0.090205 -0.493812 255 255 255
-0.061549 -0.052589 0.314221 -0.541991 0.687090 0.483893 255 255 255
-0.056747 -0.052589 0.311911 -0.201934 0.894511 0.398840 255 255 255
-0.056747 -0.053107 0.314221 -0.602685 0.632095 -0.487059 255 255 255
-0.061112 -0.052589 0.319221 -0.730346 0.064672 -0.680009 255 255 255
-0.056747 -0.052589 0.314739 -0.501215 0.056941 -0.863447 255 255 255
-0.056747 -0.047589 0.311206 -0.797734 -0.503300 0.332128 255 255 255
-0.056747 -0.047589 0.314876 -0.334870 -0.434571 -0.836068 255 255 255
-0.060843 -0.047589 0.319221 -0.510985 -0.448826 -0.733109 255 255 255
-0.056747 -0.046934 0.314221 -0.226938 -0.913520 -0.337609 255 255 255
-0.056229 -0.052589 0.314221 -0.935730 0.193432 -0.294946 255 255 255
-0.056092 -0.047589 0.314221 -0.703595 -0.432693 -0.563676 255 255 255
-0.041784 -0.042589 0.364221 0.817390 -0.367924 -0.443290 255 255 255
-0.041747 -0.042627 0.364221 0.754290 0.379805 -0.535531 255 255 255
-0.041747 -0.042589 0.364069 0.645414 -0.532922 0.547207 255 255 255
-0.041747 -0.042589 0.364259 0.399897 -0.450186 -0.798383 255 255 255
-0.041747 -0.042552 0.364221 0.352046 -0.837299 -0.418324 255 255 255
-0.036810 -0.067589 0.264221 0.818766 -0.366076 -0.442279 255 255 255
-0.036747 -0.067653 0.264221 0.240005 0.697881 -0.674803 255 255 255
-0.036747 -0.067589 0.263964 0.752437 -0.269534 0.600991 255 255 255
-0.036747 -0.067589 0.264285 0.155473 -0.432719 -0.888022 255 255 255
-0.036747 -0.067526 0.264221 0.310943 -0.889981 -0.333540 255 255 255
-0.036786 -0.057589 0.264221 0.876860 0.450979 0.166537 255 255 255
-0.036747 -0.057629 0.264221 0.328953 0.923324 0.198150 255 255 255
-0.036747 -0.057589 0.264062 0.815177 0.457260 0.355528 255 255 255
-0.037497 -0.057589 0.269221 0.844578 0.177917 -0.505008 255 255 255
-0.036747 -0.058340 0.269221 0.420072 0.826110 -0.375608 255 255 255
-0.036747 -0.057589 0.269972 0.198665 0.098787 -0.975076 255 255 255
-0.036898 -0.052589 0.264221 0.962136 -0.210954 0.172606 255 255 255
-0.036747 -0.052589 0.263374 -0.006220 -0.670222 0.742135 255 255 255
-0.037633 -0.052589 0.269221 0.901433 -0.372870 -0.219968 255 255 255
-0.036747 -0.052589 0.270108 0.036070 -0.210569 -0.976913 255 255 255
-0.036747 -0.052358 0.264221 0.496281 -0.840911 0.215810 255 255 255
-0.036747 -0.051481 0.269221 -0.107726 -0.926423 -0.360743 255 255 255
-0.037284 -0.047589 0.364221 0.868970 0.237913 -0.433922 255 255 255
-0.036747 -0.048127 0.364221 0.339712 0.856519 -0.388550 255 255 255
-0.036747 -0.047589 0.361811 0.768929 0.541072 0.340572 255 255 255
-0.036747 -0.047589 0.364759 0.222575 0.077877 -0.971800 255 255 255
-0.036747 -0.042589 0.363112 0.052029 0.254174 0.965758 255 255 255
-0.037607 -0.042589 0.369221 0.657734 -0.508135 -0.556044 255 255 255
-0.036747 -0.043450 0.369221 0.030796 0.405395 -0.913623 255 255 255
-0.036747 -0.042589 0.370082 0.191484 -0.218048 -0.956968 255 255 255
-0.037652 -0.037589 0.364221 0.845523 -0.467968 -0.257094 255 255 255
-0.036747 -0.037589 0.359801 0.885529 0.263746 0.382460 255 255 255
-0.036747 -0.037589 0.365126 0.105271 -0.613341 -0.782771 255 255 255
-0.036747 -0.041729 0.369221 0.408401 -0.823482 -0.393810 255 255 255
-0.036534 -0.067589 0.264221 -0.393007 -0.577069 -0.715917 255 255 255
-0.032645 -0.067589 0.364221 0.865772 0.124424 -0.484724 255 255 255
-0.031747 -0.068487 0.364221 0.343950 0.872434 -0.347213 255 255 255
-0.031747 -0.067589 0.359843 0.628923 0.711485 0.313440 255 255 255
-0.031747 -0.067589 0.365119 0.148676 0.106058 -0.983182 255 255 255
-0.032459 -0.062589 0.364221 0.858052 -0.430795 -0.279575 255 255 255
-0.031747 -0.062589 0.360900 0.117964 -0.859335 0.497623 255 255 255
-0.031747 -0.062589 0.364933 0.000000 -0.278675 -0.960385 255 255 255
-0.031747 -0.058013 0.264221 0.047102 0.980228 0.192181 255 255 255
-0.031747 -0.057589 0.263061 0.091039 -0.398829 0.912495 255 255 255
-0.031747 -0.058408 0.269221 0.020621 0.713670 -0.700178 255 255 255
-0.031747 -0.057589 0.270040 0.010560 -0.339787 -0.940443 255 255 255
-0.031747 -0.061877 0.364221 0.000000 -0.938243 -0.345976 255 255 255
-0.031747 -0.057050 0.264221 0.052083 -0.957624 0.283273 255 255 255
-0.036442 -0.052589 0.264221 -0.873877 -0.435142 0.216771 255 255 255
-0.031747 -0.056577 0.269221 0.002779 -0.867001 -0.498298 255 255 255
-0.035655 -0.052589 0.269221 -0.599296 -0.414643 -0.684774 255 255 255
-0.032476 -0.052589 0.364221 0.846740 0.203646 -0.491488 255 255 255
-0.031747 -0.053318 0.364221 0.000000 0.820247 -0.572010 255 255 255
-0.031747 -0.052589 0.360808 0.361200 0.685552 0.632103 255 255 255
-0.031747 -0.052589 0.364950 0.168365 0.022037 -0.985478 255 255 255
-0.031747 -0.047589 0.362144 -0.110149 -0.265318 0.957848 255 255 255
-0.031747 -0.047589 0.364628 0.458197 0.008721 -0.888808 255 255 255
-0.031747 -0.042589 0.363499 -0.222998 0.140017 0.964711 255 255 255
-0.031747 -0.043452 0.369221 0.094017 0.332818 -0.938293 255 255 255
-0.031747 -0.042589 0.370084 -0.019533 -0.248038 -0.968553 255 255 255
-0.031747 -0.037589 0.360488 -0.934416 0.180195 0.307239 255 255 255
-0.031747 -0.037589 0.365008 -0.073553 -0.640335 -0.764566 255 255 255
-0.031747 -0.041727 0.369221 -0.089671 -0.842723 -0.530826 255 255 255
-0.027324 -0.072589 0.364221 0.879886 0.113166 -0.461512 255 255 255
-0.026747 -0.072589 0.361612 0.892321 0.068571 0.446163 255 255 255
-0.026747 -0.067589 0.360582 -0.901969 -0.250106 0.351993 255 255 255
-0.026747 -0.072589 0.364798 0.000000 0.004166 -0.999991 255 255 255
-0.026747 -0.067589 0.364819 -0.170267 -0.498691 -0.849892 255 255 255
-0.028123 -0.062589 0.359221 -0.269812 -0.920452 -0.282790 255 255 255
-0.026747 -0.064518 0.359221 -0.816915 -0.508595 -0.271992 255 255 255
-0.026747 -0.062589 0.358583 -0.603654 -0.700013 0.381553 255 255 255
-0.026747 -0.062589 0.359376 -0.333484 -0.672106 -0.661107 255 255 255
-0.026747 -0.066992 0.364221 -0.454731 -0.802316 -0.386664 255 255 255
-0.031035 -0.062589 0.364221 -0.516902 -0.508717 -0.688491 255 255 255
-0.026747 -0.058177 0.264221 -0.578051 0.804440 0.136872 255 255 255
-0.026747 -0.057589 0.263064 -0.728539 0.480745 0.487971 255 255 255
-0.026747 -0.058504 0.269221 -0.218328 0.644121 -0.733104 255 255 255
-0.026747 -0.057589 0.270136 -0.398915 0.025405 -0.916636 255 255 255
-0.026747 -0.062435 0.359221 -0.379931 -0.866306 -0.324293 255 255 255
-0.027318 -0.052589 0.264221 0.883101 -0.434108 0.177999 255 255 255
-0.026747 -0.052589 0.262474 0.615627 -0.542391 0.571678 255 255 255
-0.027557 -0.052589 0.269221 0.721301 -0.594272 -0.355762 255 255 255
-0.026747 -0.052589 0.269870 0.168670 -0.279496 -0.945216 255 255 255
-0.031018 -0.052589 0.364221 -0.884556 0.158514 -0.438672 255 255 255
-0.026747 -0.052138 0.264221 0.290028 -0.950549 0.111087 255 255 255
-0.026747 -0.051940 0.269221 0.290962 -0.867267 -0.403967 255 255 255
-0.026747 -0.047906 0.364221 -0.366345 0.918321 0.149930 255 255 255
-0.026747 -0.047589 0.362870 -0.498501 0.759852 0.417279 255 255 255
-0.026747 -0.048445 0.369221 -0.183457 0.935677 -0.301417 255 255 255
-0.027603 -0.047589 0.369221 0.731306 0.239603 -0.638578 255 255 255
-0.026747 -0.047589 0.370077 0.000000 -0.000462 -1.000000 255 255 255
-0.026747 -0.045195 0.364221 -0.912572 -0.224796 0.341584 255 255 255
-0.030266 -0.042589 0.364221 -0.481611 -0.046749 0.875137 255 255 255
-0.026747 -0.042589 0.366602 -0.461699 -0.855778 0.233406 255 255 255
-0.026747 -0.042589 0.369596 -0.209503 -0.476822 -0.853668 255 255 255
-0.030960 -0.037589 0.364221 -0.544629 -0.701953 -0.458957 255 255 255
-0.026747 -0.042215 0.369221 -0.391414 -0.897284 -0.204148 255 255 255
-0.026170 -0.072589 0.364221 -0.986739 0.004111 -0.162265 255 255 255
-0.026149 -0.067589 0.364221 -0.698334 -0.420515 -0.579221 255 255 255
-0.026592 -0.062589 0.359221 -0.644119 -0.683701 -0.343021 255 255 255
-0.026473 -0.057589 0.264221 -0.935702 0.301093 0.183862 255 255 255
-0.025832 -0.057589 0.269221 -0.962909 0.199634 -0.181528 255 255 255
-0.023374 -0.052589 0.264221 -0.133317 0.820764 0.555493 255 255 255
-0.021747 -0.052589 0.264818 -0.622000 0.706873 0.336818 255 255 255
-0.021747 -0.053492 0.269221 -0.379646 0.666532 -0.641563 255 255 255
-0.021747 -0.052589 0.270124 -0.138919 -0.301447 -0.943309 255 255 255
-0.021747 -0.047589 0.259578 -0.415756 -0.831775 0.367827 255 255 255
-0.022791 -0.047589 0.264221 0.387084 -0.777436 -0.495741 255 255 255
-0.021747 -0.051821 0.264221 -0.945287 0.166539 0.280528 255 255 255
-0.023550 -0.051903 0.265159 0.112806 -0.987277 0.112069 255 255 255
-0.021747 -0.051687 0.269221 -0.431101 -0.853004 -0.294171 255 255 255
-0.021747 -0.047589 0.264927 -0.034451 -0.655699 -0.754236 255 255 255
-0.026430 -0.047589 0.364221 -0.939959 0.304348 0.154436 255 255 255
-0.025891 -0.047589 0.369221 -0.894359 0.307044 -0.325341 255 255 255
-0.021747 -0.046883 0.264221 -0.139350 -0.920568 -0.364878 255 255 255
-0.021747 -0.042589 0.363884 -0.187412 -0.390009 0.901537 255 255 255
-0.022678 -0.042589 0.364221 -0.444120 -0.699321 -0.560096 255 255 255
-0.021747 -0.042672 0.364221 -0.066745 0.720776 -0.689947 255 255 255
-0.021747 -0.042589 0.364304 -0.005916 -0.435232 -0.900299 255 255 255
-0.026372 -0.042589 0.369221 -0.476795 -0.545602 -0.689191 255 255 255
-0.021747 -0.042507 0.364221 -0.027949 -0.936059 -0.350732 255 255 255
-0.020844 -0.052589 0.269221 -0.871637 -0.415031 -0.260763 255 255 255
-0.021041 -0.047589 0.264221 -0.400399 -0.719861 -0.566993 255 255 255
-0.021191 -0.042589 0.364221 0.365268 -0.622500 -0.692151 255 255 255
-0.016747 -0.043106 0.369221 -0.337651 0.745488 -0.574665 255 255 255
-0.016747 -0.042589 0.366915 -0.712726 -0.027159 0.700916 255 255 255
-0.017264 -0.042589 0.369221 0.705716 -0.379835 -0.598072 255 255 255
-0.016747 -0.042589 0.369738 0.000000 -0.368672 -0.929560 255 255 255
-0.016747 -0.042072 0.369221 0.000000 -0.937460 -0.348092 255 255 255
-0.016230 -0.042589 0.369221 -0.842884 -0.333281 -0.422457 255 255 255
0.022557 -0.052589 0.279221 0.894986 0.102272 -0.434212 255 255 255
0.023253 -0.053286 0.279221 0.543594 0.684999 -0.485058 255 255 255
0.023253 -0.052589 0.275986 0.643652 0.656055 0.394087 255 255 255
0.023253 -0.052589 0.279918 0.391466 0.046348 -0.919024 255 255 255
0.023253 -0.049235 0.279221 0.842545 0.537082 0.040747 255 255 255
0.023253 -0.047589 0.280809 0.786207 -0.299982 0.540269 255 255 255
0.022525 -0.047589 0.284221 0.769255 -0.520243 -0.370936 255 255 255
0.023253 -0.048318 0.284221 0.420803 0.127116 -0.898202 255 255 255
0.023253 -0.047589 0.284950 0.153258 -0.329969 -0.931468 255 255 255
0.023253 -0.046861 0.284221 0.277955 -0.901345 -0.332142 255 255 255
0.022597 -0.042589 0.354221 0.850255 -0.323071 -0.415561 255 255 255
0.023253 -0.043246 0.354221 0.313732 0.770031 -0.555540 255 255 255
0.023253 -0.042589 0.351199 0.711408 0.073034 0.698974 255 255 255
0.023253 -0.042589 0.354878 0.000000 -0.345950 -0.938253 255 255 255
0.023253 -0.041933 0.354221 0.000000 -0.937999 -0.346639 255 255 255
0.027494 -0.067589 0.284221 0.915327 -0.036323 -0.401069 255 255 255
0.027809 -0.072589 0.284221 0.878990 0.059444 -0.473120 255 255 255
0.028253 -0.072589 0.282271 0.931446 0.112731 0.345976 255 255 255
0.028253 -0.067589 0.280642 0.247610 -0.049474 0.967596 255 255 255
0.028253 -0.067589 0.284980 0.070322 -0.036576 -0.996854 255 255 255
0.028253 -0.072589 0.284666 0.419761 0.061241 -0.905566 255 255 255
0.028059 -0.062589 0.284221 0.898949 -0.045422 -0.435691 255 255 255
0.028253 -0.062589 0.283411 0.108439 -0.247554 0.962786 255 255 255
0.028253 -0.062589 0.284416 -0.151900 0.001947 -0.988394 255 255 255
0.028013 -0.057589 0.284221 0.913632 0.012019 -0.406364 255 255 255
0.028253 -0.057589 0.283213 0.770041 0.050565 0.635988 255 255 255
0.028253 -0.057589 0.284461 0.115254 0.033556 -0.992769 255 255 255
0.026518 -0.052589 0.279221 0.899571 -0.072245 -0.430758 255 255 255
0.028253 -0.052589 0.282061 -0.396545 -0.242831 0.885316 255 255 255
0.027946 -0.052589 0.284221 0.956349 0.271833 0.107255 255 255 255
0.028253 -0.053325 0.289221 0.499865 0.329626 -0.800925 255 255 255
0.027518 -0.052589 0.289221 0.857169 -0.451379 -0.248029 255 255 255
0.028253 -0.052589 0.289957 0.000000 -0.332734 -0.943021 255 255 255
0.028253 -0.051481 0.284221 0.604808 -0.796359 0.004471 255 255 255
0.025385 -0.047589 0.284221 -0.308951 -0.815732 -0.489010 255 255 255
0.028253 -0.051854 0.289221 -0.210232 -0.906879 -0.365203 255 255 255
0.027919 -0.047589 0.349221 0.835393 0.164890 -0.524337 255 255 255
0.028253 -0.047923 0.349221 0.718576 0.450037 -0.530203 255 255 255
0.028253 -0.047589 0.347790 0.688922 0.622723 0.370949 255 255 255
0.028253 -0.047589 0.349555 0.525208 0.018155 -0.850780 255 255 255
0.027491 -0.042589 0.349221 -0.332987 -0.835370 -0.437352 255 255 255
0.028253 -0.042589 0.348866 0.091648 -0.917926 0.386020 255 255 255
0.023910 -0.042589 0.354221 -0.704112 -0.394405 -0.590484 255 255 255
0.028253 -0.042589 0.349309 0.000252 -0.441262 -0.897378 255 255 255
0.028253 -0.042502 0.349221 0.035121 -0.894208 -0.446272 255 255 255
0.033253 -0.071694 0.284221 -0.555014 -0.766272 -0.323707 255 255 255
0.029507 -0.067589 0.284221 -0.691054 -0.188915 -0.697679 255 255 255
0.033253 -0.072589 0.281888 -0.445651 -0.824982 0.347562 255 255 255
0.033253 -0.072589 0.284744 -0.187160 -0.433766 -0.881373 255 255 255
0.032612 -0.067589 0.349221 0.847903 0.173185 -0.501067 255 255 255
0.033253 -0.068231 0.349221 0.221539 0.893646 -0.390279 255 255 255
0.033253 -0.067589 0.346276 0.754362 0.577674 0.311819 255 255 255
0.033253 -0.067589 0.349863 0.193474 0.087099 -0.977232 255 255 255
0.028448 -0.062589 0.284221 -0.864015 -0.009404 -0.503379 255 255 255
0.032465 -0.062589 0.349221 0.910578 0.011657 -0.413174 255 255 255
0.033253 -0.062589 0.344281 0.882906 -0.047164 0.467176 255 255 255
0.033253 -0.062589 0.350010 0.427849 -0.005111 -0.903836 255 255 255
0.029586 -0.057589 0.284221 -0.236868 -0.028269 -0.971130 255 255 255
0.032608 -0.057589 0.349221 0.912324 -0.028286 -0.408491 255 255 255
0.033253 -0.057589 0.346255 0.502531 -0.085586 0.860312 255 255 255
0.033253 -0.057589 0.349867 -0.203522 -0.001027 -0.979070 255 255 255
0.028872 -0.052589 0.284221 -0.990823 0.070926 0.115060 255 255 255
0.028989 -0.052589 0.289221 -0.807649 -0.432512 -0.400794 255 255 255
0.032592 -0.052589 0.349221 0.950080 0.007511 -0.311916 255 255 255
0.033253 -0.052589 0.346174 0.930071 -0.105485 0.351911 255 255 255
0.033253 -0.052589 0.349883 0.219766 0.015459 -0.975430 255 255 255
0.033253 -0.047589 0.349125 0.131602 -0.234571 0.963150 255 255 255
0.032441 -0.047589 0.354221 0.838760 -0.048776 -0.542312 255 255 255
0.033253 -0.048402 0.354221 -0.049602 0.300581 -0.952465 255 255 255
0.033253 -0.047589 0.355034 -0.268870 0.008691 -0.963137 255 255 255
0.033253 -0.042589 0.349159 0.102002 0.655361 0.748396 255 255 255
0.032809 -0.042589 0.354221 0.609026 -0.560956 -0.560728 255 255 255
0.033253 -0.042589 0.354666 0.211376 -0.338487 -0.916923 255 255 255
0.032527 -0.037589 0.349221 0.831007 -0.492486 -0.258623 255 255 255
0.033253 -0.037589 0.345820 0.882638 0.214008 0.418510 255 255 255
0.033253 -0.037589 0.349948 0.084739 -0.613181 -0.785385 255 255 255
0.033253 -0.042145 0.354221 0.414602 -0.832391 -0.367737 255 255 255
0.033776 -0.072589 0.284221 -0.846988 -0.442691 -0.294341 255 255 255
0.038253 -0.068192 0.349221 -0.225756 0.642331 -0.732424 255 255 255
0.038253 -0.067589 0.346481 -0.527026 0.758748 0.382813 255 255 255
0.038253 -0.067589 0.349824 -0.262367 0.033497 -0.964386 255 255 255
0.038253 -0.063479 0.349221 -0.631238 0.774525 0.040618 255 255 255
0.037570 -0.062589 0.349221 0.355790 -0.925052 0.133012 255 255 255
0.038253 -0.062589 0.349814 -0.626783 -0.451324 0.635177 255 255 255
0.037351 -0.062589 0.354221 0.643074 -0.649286 -0.406059 255 255 255
0.038253 -0.063492 0.354221 -0.421748 0.263737 -0.867509 255 255 255
0.038253 -0.062589 0.355124 0.000000 -0.304284 -0.952581 255 255 255
0.036989 -0.057589 0.344221 -0.495808 -0.612074 -0.616069 255 255 255
0.038253 -0.060040 0.344221 -0.893093 -0.367967 -0.258813 255 255 255
0.038253 -0.057589 0.343533 -0.837407 -0.074696 0.541452 255 255 255
0.038253 -0.057589 0.344388 -0.404563 -0.409086 -0.817910 255 255 255
0.033899 -0.057589 0.349221 -0.661644 -0.025084 -0.749398 255 255 255
0.038253 -0.061687 0.354221 0.198491 -0.965237 -0.170057 255 255 255
0.038253 -0.056353 0.344221 -0.879700 0.019894 -0.475113 255 255 255
0.038253 -0.052589 0.347234 -0.847147 0.381022 0.370357 255 255 255
0.038253 -0.052913 0.349221 -0.354957 0.028397 -0.934451 255 255 255
0.038253 -0.052589 0.349545 -0.388588 0.028665 -0.920966 255 255 255
0.038253 -0.047589 0.346675 0.396917 -0.119124 0.910091 255 255 255
0.034066 -0.047589 0.354221 -0.738803 -0.009553 -0.673854 255 255 255
0.038253 -0.047589 0.349574 -0.259214 0.045356 -0.964754 255 255 255
0.038253 -0.042589 0.347579 0.384585 -0.017025 0.922933 255 255 255
0.038253 -0.043307 0.354221 -0.093459 0.257909 -0.961638 255 255 255
0.038253 -0.042589 0.354939 -0.136857 -0.332653 -0.933066 255 255 255
0.038253 -0.037589 0.346532 -0.949519 0.064260 0.307058 255 255 255
0.038253 -0.037589 0.349814 -0.045343 -0.668978 -0.741898 255 255 255
0.038253 -0.041872 0.354221 -0.411041 -0.799827 -0.437404 255 255 255
0.038856 -0.067589 0.349221 -0.857145 0.067886 -0.510581 255 255 255
0.039156 -0.062589 0.354221 -0.918233 -0.369819 -0.141713 255 255 255
0.038420 -0.057589 0.344221 -0.832757 -0.332528 -0.442652 255 255 255
0.038577 -0.052589 0.349221 -0.938003 0.025485 -0.345690 255 255 255
0.043253 -0.048230 0.349221 -0.333690 0.629251 -0.701922 255 255 255
0.043253 -0.047589 0.346283 -0.580478 0.725288 0.370139 255 255 255
0.043253 -0.047589 0.349862 -0.286336 0.095799 -0.953328 255 255 255
0.042394 -0.042589 0.344221 0.355678 -0.834950 0.419942 255 255 255
0.043253 -0.043852 0.344221 -0.689980 0.337925 0.640105 255 255 255
0.043253 -0.042589 0.343525 0.180592 -0.893941 0.410189 255 255 255
0.038971 -0.042589 0.354221 -0.679257 -0.618831 -0.394535 255 255 255
0.043253 -0.042589 0.350198 -0.376349 -0.340209 -0.861754 255 255 255
0.043253 -0.042421 0.344221 0.100106 -0.972953 0.208187 255 255 255
0.043253 -0.041613 0.349221 -0.396418 -0.912752 -0.098676 255 255 255
0.038846 -0.037589 0.349221 -0.205524 -0.735225 -0.645913 255 255 255
0.043894 -0.047589 0.349221 -0.867507 0.258075 -0.425239 255 255 255
0.048253 -0.042973 0.344221 -0.621578 0.515379 -0.589937 255 255 255
0.048253 -0.042589 0.342559 0.283921 -0.158346 0.945682 255 255 255
0.044230 -0.042589 0.349221 -0.573830 -0.253079 -0.778891 255 255 255
0.048253 -0.042589 0.344605 -0.158881 -0.384818 -0.909215 255 255 255
0.048253 -0.042206 0.344221 0.058061 -0.906991 -0.417130 255 255 255
0.053253 -0.043370 0.344221 -0.192044 0.683583 -0.704154 255 255 255
0.053253 -0.042589 0.340523 -0.700817 0.525134 0.482794 255 255 255
0.053253 -0.042589 0.345002 -0.152052 -0.401026 -0.903360 255 255 255
0.053253 -0.041809 0.344221 -0.296738 -0.926140 -0.232832 255 255 255
0.058205 -0.042589 0.284221 0.817928 -0.367201 -0.442896 255 255 255
0.058253 -0.042637 0.284221 0.572406 0.587114 -0.572406 255 255 255
0.058253 -0.042589 0.284028 0.954829 -0.124480 0.269827 255 255 255
0.058253 -0.042589 0.284269 0.409545 -0.401703 -0.819090 255 255 255
0.054034 -0.042589 0.344221 -0.856777 -0.313949 -0.409108 255 255 255
0.058253 -0.042542 0.284221 0.682183 -0.684664 -0.256635 255 255 255
3 2 1 0
3 2 0 3
3 1 5 4
3 1 4 0
3 7 6 1
3 7 1 2
3 6 8 5
3 6 5 1
3 10 9 6
3 10 6 7
3 9 11 8
3 9 8 6
3 13 12 9
3 10 13 9
3 14 13 10
3 15 11 9
3 16 15 9
3 12 16 9
3 15 16 17
3 18 17 16
3 19 13 14
3 19 20 13
3 23 22 21
3 22 15 21
3 21 15 17
3 24 21 17
3 17 18 24
3 22 23 25
3 19 27 26
3 28 19 26
3 20 19 28
3 29 23 27
3 21 27 23
3 27 21 26
3 30 26 21
3 26 30 31
3 29 25 23
3 31 30 32
3 33 28 26
3 33 26 31
3 33 31 34
3 34 31 32
3 37 36 35
3 37 35 38
3 41 40 39
3 35 41 39
3 36 41 35
3 40 41 42
3 43 38 35
3 46 45 44
3 39 43 35
3 47 45 46
3 50 49 48
3 48 49 44
3 45 48 44
3 51 48 45
3 45 47 52
3 45 52 51
3 50 48 12
3 13 50 12
3 53 50 13
3 12 48 16
3 16 48 51
3 18 16 51
3 52 18 51
3 54 18 52
3 20 53 13
3 20 55 53
3 57 56 24
3 24 56 21
3 24 18 54
3 24 54 57
3 28 55 20
3 28 58 55
3 30 21 59
3 21 60 59
3 21 56 60
3 59 32 30
3 61 58 28
3 61 28 33
3 34 59 60
3 61 34 60
3 33 34 61
3 59 34 32
3 38 63 62
3 64 38 62
3 37 38 64
3 65 62 63
3 67 40 66
3 40 67 39
3 68 39 67
3 39 68 69
3 40 42 66
3 69 68 70
3 43 63 38
3 71 43 39
3 71 39 69
3 71 69 46
3 71 46 44
3 71 44 72
3 71 72 65
3 71 65 63
3 71 63 43
3 47 46 69
3 70 47 69
3 73 47 70
3 75 74 49
3 75 49 50
3 44 76 72
3 76 44 77
3 49 77 44
3 77 49 78
3 74 78 49
3 73 76 77
3 52 73 77
3 47 73 52
3 53 80 79
3 75 53 79
3 50 53 75
3 81 77 78
3 80 82 79
3 52 77 81
3 83 52 81
3 54 52 83
3 85 84 80
3 53 85 80
3 55 85 53
3 86 56 57
3 84 82 80
3 87 86 57
3 54 87 57
3 83 87 54
3 58 89 88
3 85 58 88
3 55 58 85
3 90 88 86
3 88 60 86
3 60 56 86
3 88 89 60
3 90 86 87
3 61 89 58
3 89 61 60
3 62 91 64
3 92 62 65
3 92 91 62
3 92 68 67
3 91 92 67
3 92 70 68
3 72 93 92
3 72 92 65
3 93 73 70
3 93 70 92
3 75 94 74
3 76 93 72
3 78 74 94
3 93 76 73
3 96 79 95
3 96 75 79
3 94 75 96
3 94 96 97
3 81 99 98
3 99 81 94
3 78 94 81
3 99 94 97
3 95 79 82
3 98 83 81
3 96 95 84
3 85 96 84
3 100 96 85
3 95 82 84
3 102 99 101
3 99 102 98
3 102 87 83
3 102 83 98
3 103 100 85
3 103 85 88
3 90 102 101
3 103 90 101
3 88 90 103
3 102 90 87
3 96 104 97
3 104 99 97
3 100 105 104
3 100 104 96
3 105 101 99
3 105 99 104
3 103 105 100
3 105 103 101
3 108 107 106
3 109 106 107
3 110 108 106
3 110 106 109
3 113 112 111
3 114 111 112
3 115 113 111
3 115 111 114
3 118 117 116
3 120 119 116
3 120 116 117
3 121 119 120
3 118 116 122
3 118 122 123
3 124 116 119
3 122 116 124
3 119 121 125
3 119 125 124
3 126 123 122
3 126 122 124
3 126 124 127
3 127 124 125
3 130 129 128
3 131 128 129
3 130 128 107
3 108 130 107
3 132 130 108
3 134 133 109
3 134 109 107
3 131 134 107
3 128 131 107
3 135 133 134
3 108 110 136
3 137 108 136
3 132 108 137
3 138 136 110
3 138 110 109
3 139 138 109
3 133 139 109
3 139 133 135
3 113 140 112
3 140 114 112
3 143 142 141
3 144 141 142
3 115 140 113
3 140 115 114
3 143 141 145
3 143 145 146
3 141 144 147
3 141 147 145
3 149 148 117
3 149 117 118
3 117 150 120
3 148 150 117
3 121 120 150
3 121 150 151
3 152 146 145
3 152 145 147
3 123 154 153
3 149 123 153
3 118 123 149
3 156 155 154
3 154 155 153
3 151 155 156
3 125 151 156
3 121 151 125
3 159 158 157
3 160 157 158
3 126 154 123
3 154 126 127
3 154 127 156
3 156 127 125
3 159 157 129
3 130 159 129
3 161 159 130
3 131 129 157
3 160 131 157
3 162 131 160
3 132 161 130
3 132 163 161
3 162 164 131
3 131 164 134
3 135 134 164
3 135 164 165
3 137 163 132
3 137 166 163
3 168 167 139
3 139 167 138
3 139 135 165
3 139 165 168
3 170 169 142
3 143 170 142
3 171 170 143
3 144 142 169
3 172 144 169
3 173 144 172
3 176 175 174
3 174 175 177
3 171 179 178
3 179 171 146
3 143 146 171
3 173 178 179
3 147 173 179
3 144 173 147
3 181 180 148
3 181 148 149
3 148 182 150
3 180 182 148
3 151 150 182
3 151 182 183
3 184 176 174
3 146 152 179
3 174 177 184
3 179 152 147
3 149 153 185
3 186 149 185
3 181 149 186
3 155 187 153
3 153 187 185
3 188 187 155
3 151 188 155
3 183 188 151
3 159 189 158
3 189 160 158
3 190 186 185
3 190 185 187
3 190 187 191
3 191 187 188
3 193 192 189
3 159 193 189
3 161 193 159
3 162 160 189
3 194 162 189
3 192 194 189
3 162 194 195
3 196 195 194
3 163 198 197
3 193 163 197
3 161 163 193
3 195 164 162
3 199 197 198
3 165 164 195
3 196 165 195
3 200 165 196
3 166 201 198
3 166 198 163
3 168 202 167
3 202 198 167
3 198 201 167
3 198 202 199
3 168 165 200
3 168 200 202
3 171 204 203
3 171 203 170
3 204 173 172
3 204 172 203
3 176 205 175
3 178 204 171
3 177 175 205
3 204 178 173
3 181 206 180
3 207 182 180
3 207 180 206
3 207 183 182
3 184 205 176
3 205 184 177
3 186 208 206
3 186 206 181
3 210 207 209
3 207 208 209
3 207 206 208
3 183 207 210
3 211 183 210
3 188 183 211
3 208 186 190
3 214 213 212
3 215 190 191
3 215 191 216
3 215 216 217
3 215 217 213
3 215 213 214
3 215 214 209
3 215 209 208
3 215 208 190
3 191 188 211
3 191 211 216
3 193 218 192
3 219 194 192
3 219 192 218
3 219 196 194
3 220 212 213
3 220 213 217
3 218 193 197
3 223 222 221
3 223 224 222
3 225 197 199
3 197 225 218
3 219 218 225
3 225 200 196
3 225 196 219
3 226 221 222
3 199 202 225
3 222 224 226
3 225 202 200
3 209 227 210
3 227 211 210
3 212 228 214
3 228 209 214
3 228 227 209
3 228 217 216
3 227 228 216
3 227 216 211
3 220 228 212
3 228 220 217
3 221 229 223
3 224 223 229
3 232 231 230
3 233 232 230
3 226 229 221
3 232 234 231
3 224 229 226
3 234 232 233
3 231 235 230
3 235 233 230
3 234 235 231
3 235 234 233
3 238 237 236
3 239 236 237
3 240 238 236
3 243 242 241
3 239 240 236
3 244 242 243
3 245 241 242
3 245 242 244
3 248 247 246
3 249 246 247
3 250 248 246
3 250 246 249
3 253 252 251
3 253 251 254
3 252 256 255
3 252 255 251
3 254 251 257
3 254 257 258
3 251 255 259
3 251 259 257
3 258 257 260
3 258 260 261
3 257 259 262
3 257 262 260
3 238 263 237
3 263 239 237
3 260 264 261
3 264 260 265
3 260 262 266
3 267 260 266
3 265 260 267
3 268 267 266
3 240 263 238
3 265 269 264
3 270 243 241
3 263 240 239
3 244 243 270
3 271 269 267
3 265 267 269
3 271 267 268
3 274 273 272
3 275 272 273
3 245 270 241
3 270 245 244
3 274 272 276
3 274 276 277
3 247 248 278
3 275 279 272
3 276 272 279
3 278 249 247
3 280 277 276
3 248 250 278
3 276 279 280
3 278 250 249
3 254 282 281
3 283 254 281
3 253 254 283
3 284 281 282
3 255 284 282
3 256 284 255
3 287 286 285
3 288 285 286
3 258 289 282
3 258 282 254
3 289 259 255
3 289 255 282
3 287 285 290
3 287 290 291
3 285 288 292
3 285 292 290
3 261 293 289
3 261 289 258
3 293 262 259
3 293 259 289
3 291 290 294
3 291 294 295
3 290 292 296
3 290 296 294
3 264 297 293
3 264 293 261
3 298 266 262
3 293 298 262
3 297 298 293
3 298 268 266
3 295 294 299
3 295 299 300
3 294 296 301
3 294 301 299
3 269 297 264
3 297 269 271
3 297 271 298
3 298 271 268
3 300 299 273
3 274 300 273
3 302 300 274
3 304 303 275
3 304 275 273
3 301 304 273
3 299 301 273
3 305 303 304
3 277 302 274
3 277 306 302
3 307 279 303
3 303 279 275
3 303 305 308
3 303 308 307
3 277 280 309
3 310 277 309
3 306 277 310
3 311 309 280
3 311 280 279
3 312 311 279
3 307 312 279
3 312 307 308
3 281 313 283
3 313 281 284
3 315 314 286
3 315 286 287
3 288 286 314
3 288 314 316
3 291 318 317
3 315 291 317
3 287 291 315
3 319 317 318
3 321 320 316
3 292 316 320
3 316 292 288
3 322 320 321
3 325 324 323
3 324 326 323
3 291 295 318
3 327 318 295
3 292 320 296
3 328 296 320
3 296 328 327
3 319 327 328
3 327 319 318
3 328 320 322
3 329 325 323
3 326 329 323
3 331 327 330
3 295 330 327
3 330 295 300
3 296 327 331
3 332 296 331
3 301 296 332
3 302 330 300
3 302 333 330
3 304 301 334
3 301 335 334
3 301 332 335
3 334 305 304
3 306 333 302
3 306 336 333
3 335 337 334
3 305 334 337
3 338 305 337
3 308 305 338
3 310 336 306
3 310 339 336
3 341 340 312
3 312 340 311
3 312 308 338
3 312 338 341
3 315 342 314
3 342 316 314
3 317 342 315
3 343 317 319
3 343 342 317
3 343 321 316
3 342 343 316
3 343 322 321
3 325 344 324
3 344 326 324
3 328 343 319
3 343 328 322
3 329 344 325
3 326 344 329
3 331 330 345
3 345 332 331
3 347 346 345
3 330 347 345
3 333 347 330
3 332 345 346
3 348 332 346
3 335 332 348
3 351 350 349
3 350 347 349
3 347 336 349
3 347 333 336
3 337 335 352
3 335 353 352
3 335 348 353
3 352 338 337
3 354 351 349
3 336 339 349
3 339 355 349
3 355 354 349
3 355 339 356
3 355 356 353
3 353 356 352
3 356 340 352
3 340 341 352
3 352 341 338
3 347 357 346
3 357 348 346
3 359 358 350
3 359 350 351
3 350 358 347
3 358 360 347
3 360 357 347
3 360 358 361
3 360 353 348
3 360 348 357
3 362 359 351
3 362 351 354
3 355 360 361
3 362 355 361
3 354 355 362
3 360 355 353
3 364 363 358
3 364 358 359
3 361 358 363
3 361 363 365
3 366 364 359
3 366 359 362
3 362 361 365
3 362 365 366
3 369 368 367
3 370 367 368
3 364 371 363
3 371 365 363
3 372 369 367
3 372 367 370
3 366 371 364
3 371 366 365
